# xmcd CD database file
# Copyright (C) 1993-1998 Ti Kan
#
# Track frame offsets:
#	75
#	10412
#	20370
#	27637
#	35007
#	47152
#	56280
#	68627
#	77530
#	87785
#	96352
#	106187
#	116005
#	125600
#	137910
#	151932
#	165075
#	176152
#	191627
#
# Disc length: 2794 seconds
#
# Revision: 1
# Processed by: cddbd v1.4b41PL1 Copyright (c) Steve Scherf et al.
# Submitted via: NotifyCDPlayer(CDDB) 1.51.3
#
DISCID=f30ae913
DTITLE=The small faces - Small faces
DYEAR=1900
DGENRE=
TTITLE0=(Tell me) Have you ever seen me
TTITLE1=Something I want to tell you
TTITLE2=Feeling lonely
TTITLE3=Happy boys happy
TTITLE4=Things are going to get better
TTITLE5=My way of giving
TTITLE6=Green circles
TTITLE7=Become like you
TTITLE8=Get yourself together
TTITLE9=All of our yesterdays
TTITLE10=Talk to you
TTITLE11=Show me the way
TTITLE12=Up the wooden hills to bedfordshire
TTITLE13=Eddie's dreaming
TTITLE14=Here comes the nice
TTITLE15=Itchycoo park
TTITLE16=I'm only dreaming
TTITLE17=Tin soldier
TTITLE18=I feel much better
EXTD=Arranged and produced by Steve Marriott and Ronnie Lane
EXTT0=
EXTT1=
EXTT2=
EXTT3=
EXTT4=
EXTT5=
EXTT6=
EXTT7=
EXTT8=
EXTT9=
EXTT10=
EXTT11=
EXTT12=
EXTT13=
EXTT14=
EXTT15=
EXTT16=
EXTT17=
EXTT18=
PLAYORDER=
